<svg width="12" height="21" viewBox="0 0 12 21" fill="none" xmlns="http://www.w3.org/2000/svg">
<path fill-rule="evenodd" clip-rule="evenodd" d="M11.0306 14.4694C11.1715 14.6101 11.2506 14.8009 11.2506 15C11.2506 15.1991 11.1715 15.3899 11.0306 15.5306L6.53063 20.0306C6.38995 20.1715 6.19906 20.2506 6 20.2506C5.80094 20.2506 5.61005 20.1715 5.46937 20.0306L0.969375 15.5306C0.676319 15.2376 0.676319 14.7624 0.969375 14.4694C1.26243 14.1763 1.73757 14.1763 2.03063 14.4694L6 18.4397L9.96937 14.4694C10.1101 14.3285 10.3009 14.2494 10.5 14.2494C10.6991 14.2494 10.8899 14.3285 11.0306 14.4694V14.4694ZM2.03063 6.53063L6 2.56031L9.96937 6.53063C10.2624 6.82368 10.7376 6.82368 11.0306 6.53063C11.3237 6.23757 11.3237 5.76243 11.0306 5.46938L6.53063 0.969375C6.38995 0.828542 6.19906 0.74941 6 0.74941C5.80094 0.74941 5.61005 0.828542 5.46937 0.969375L0.969375 5.46938C0.676319 5.76243 0.676319 6.23757 0.969375 6.53063C1.26243 6.82368 1.73757 6.82368 2.03063 6.53063V6.53063Z" fill="#9EA3B8"/>
</svg>
